<svg xmlns="http://www.w3.org/2000/svg" xmlns:xlink="http://www.w3.org/1999/xlink" width="512" height="512" x="0" y="0" viewBox="0 0 512.001 512.001" style="enable-background:new 0 0 512 512" xml:space="preserve">  <g>    <path d="M70.081 226.273c-1.025-3.254-5.211-4.838-9.491-4.838-4.278 0-8.466 1.584-9.489 4.838l-17.303 56.752c-.094.369-.188.744-.188 1.025 0 3.441 5.302 5.953 9.304 5.953 2.325 0 4.187-.746 4.745-2.699l3.163-11.629h19.629l3.163 11.629c.561 1.953 2.42 2.699 4.745 2.699 4.002 0 9.304-2.512 9.304-5.953 0-.281-.092-.656-.186-1.025l-17.396-56.752zM53.799 264.51l6.791-24.936 6.794 24.936H53.799zM176.438 221.994H157.18c-3.256 0-5.396 2.047-5.396 4.373v59.168c0 2.979 3.63 4.469 7.258 4.469 3.627 0 7.257-1.49 7.257-4.469v-20.092h9.21c12.838 0 22.887-5.957 22.887-21.586v-.465c-.001-15.629-9.676-21.398-21.958-21.398zm7.444 22.975c0 6.328-3.162 9.307-8.373 9.307h-9.21v-19.629h9.21c5.211 0 8.373 2.975 8.373 9.301v1.021zM362.073 221.994c-2.325 0-4.185.744-4.744 2.697l-12.932 47.725-13.025-47.725c-.557-1.953-2.418-2.697-4.744-2.697-4 0-9.304 2.51-9.304 5.953 0 .279.094.65.188 1.025l17.397 56.75c1.023 3.256 5.21 4.838 9.488 4.838 4.281 0 8.466-1.582 9.489-4.838l17.306-56.75c.094-.375.186-.746.186-1.025 0-3.444-5.303-5.953-9.305-5.953zM120.61 221.994h-19.262c-3.254 0-5.393 2.047-5.393 4.373v59.168c0 2.979 3.627 4.469 7.255 4.469 3.63 0 7.257-1.49 7.257-4.469v-20.092h9.211c12.838 0 22.886-5.957 22.886-21.586v-.465c0-15.629-9.676-21.398-21.954-21.398zm7.44 22.975c0 6.328-3.161 9.307-8.371 9.307h-9.211v-19.629h9.211c5.21 0 8.371 2.975 8.371 9.301v1.021zM455.502 221.994h-16.468c-3.814 0-6.326 2.047-6.326 4.373v59.262c0 2.328 2.512 4.375 6.326 4.375h16.468c12.838 0 22.886-5.953 22.886-21.957v-24.098c0-16.002-10.048-21.955-22.886-21.955zm8.374 46.051c0 6.328-3.166 9.303-8.374 9.303h-8.28v-42.701h8.28c5.208 0 8.374 2.975 8.374 9.301v24.097zM419.115 234.648c2.791-.001 4.372-2.98 4.372-6.423 0-2.979-1.303-6.232-4.372-6.232h-33.12c-3.164 0-6.327 1.488-6.327 4.463v59.078c0 2.979 3.163 4.469 6.327 4.469h33.12c3.069 0 4.372-3.256 4.372-6.234 0-3.441-1.581-6.42-4.372-6.42h-24.933v-15.816h13.954c3.07 0 4.372-2.975 4.372-5.49 0-2.975-1.58-5.672-4.372-5.672h-13.954v-15.723h24.933zM286.893 221.994c-12.84 0-22.795 5.953-22.795 21.955v24.654c0 16.004 9.955 21.957 22.795 21.957 12.837 0 22.886-5.953 22.886-21.957v-24.654c-.001-16.002-10.05-21.955-22.886-21.955zm8.372 46.608c0 6.422-3.162 9.303-8.372 9.303s-8.28-2.881-8.28-9.303v-24.654c0-6.42 3.07-9.301 8.28-9.301 5.21 0 8.372 2.881 8.372 9.301v24.654zM242.97 260.786c6.512-2.51 11.256-8.463 11.256-18.883 0-15.166-10.142-19.91-22.886-19.91h-19.259c-2.697 0-4.465 2.047-4.465 4.373v59.168c0 2.979 3.629 4.469 7.257 4.469 3.628 0 7.257-1.49 7.257-4.469v-22.42h6.141l12.746 24.748c1.021 1.953 2.789 2.697 4.65 2.697 4.281 0 9.117-3.906 9.117-7.535 0-.465-.092-1.115-.465-1.678l-11.349-20.56zm-11.63-8.838h-9.21v-17.301h9.21c5.21 0 8.372 2.141 8.372 8.65 0 6.51-3.162 8.651-8.372 8.651z" fill="#ffffff" opacity="1" data-original="#000000"></path>    <path d="M486.872 160.867h-15.924c-17.712-40.002-46.088-74.123-82.41-98.975-39.124-26.77-84.955-40.918-132.537-40.918-47.584 0-93.414 14.148-132.539 40.918-36.321 24.852-64.697 58.973-82.409 98.975H25.128C11.272 160.867 0 172.138 0 185.995v140.006c0 13.857 11.272 25.129 25.128 25.129h15.923c17.712 40.002 46.088 74.125 82.409 98.977 39.125 26.77 84.957 40.92 132.541 40.92 47.583 0 93.414-14.15 132.539-40.92 36.32-24.852 64.695-58.975 82.408-98.977h15.924c13.855 0 25.129-11.271 25.129-25.129V185.995c0-13.857-11.274-25.128-25.129-25.128zM256.001 40.974c82.654 0 156.801 46.584 192.881 119.893h-70.489c-29.28-37.596-74.644-59.896-122.392-59.896-47.748 0-93.111 22.301-122.395 59.896H109.09c32.07-49.664 86.935-79.895 146.91-79.895 21.412 0 42.406 3.869 62.396 11.502 5.162 1.967 10.939-.617 12.908-5.777 1.97-5.158-.616-10.939-5.775-12.908-22.276-8.504-45.67-12.816-69.529-12.816a194.987 194.987 0 0 0-170.243 99.895H63.119C99.198 87.557 173.345 40.974 256.001 40.974zm95.773 119.893h-191.55c25.17-25.266 59.692-39.896 95.776-39.896s70.606 14.63 95.774 39.896zm-95.773 310.159c-82.656 0-156.803-46.586-192.884-119.897h70.489c29.28 37.596 74.645 59.895 122.395 59.895 47.748 0 93.113-22.299 122.393-59.895h24.515c-32.07 49.664-86.935 79.895-146.908 79.895a174.315 174.315 0 0 1-62.399-11.502c-5.16-1.967-10.939.617-12.909 5.777-1.969 5.16.617 10.939 5.777 12.908 22.279 8.504 45.674 12.816 69.531 12.816a194.998 194.998 0 0 0 170.242-99.894h22.639c-36.081 73.311-110.227 119.897-192.881 119.897zM160.224 351.13h191.554c-25.169 25.266-59.69 39.895-95.776 39.895-36.088-.001-70.609-14.629-95.778-39.895zm331.777-25.128c0 2.781-2.349 5.129-5.129 5.129H25.128c-2.779 0-5.128-2.348-5.128-5.129V185.995c0-2.781 2.349-5.129 5.128-5.129h461.744c2.78 0 5.129 2.348 5.129 5.129v140.007z" fill="#ffffff" opacity="1" data-original="#000000"></path>    <path d="m343.211 104.245.428.244a9.993 9.993 0 0 0 13.606-3.854c2.694-4.82.969-10.912-3.853-13.608l-.085-.047c-4.768-2.791-10.893-1.186-13.681 3.584-2.787 4.769-1.182 10.894 3.585 13.681zM168.703 407.701l-.257-.147c-4.795-2.74-10.903-1.074-13.644 3.721-2.739 4.795-1.073 10.904 3.722 13.645l.256.146a9.994 9.994 0 0 0 13.644-3.723c2.74-4.796 1.074-10.903-3.721-13.642z" fill="#ffffff" opacity="1" data-original="#000000"></path>  </g></svg>