<svg xmlns="http://www.w3.org/2000/svg" xmlns:xlink="http://www.w3.org/1999/xlink" width="512" height="512" x="0" y="0" viewBox="0 0 68 68" style="enable-background:new 0 0 512 512" xml:space="preserve" class=""><g><path d="M2.81 63.498v-3.404l5.697-2.623a1.79 1.79 0 0 0 1.039-1.621v-4.345h7.5a7.574 7.574 0 0 0 5.216 2.084c4.196 0 7.609-3.413 7.609-7.608 0-.143-.014-.283-.022-.425l4.111-8.633a.75.75 0 0 0-1.354-.645l-3.276 6.879c-.867-1.835-1.765-3.017-3.665-3.971a7.419 7.419 0 0 0-1.133-.467l2.493-5.232a.75.75 0 1 0-1.354-.645l-2.654 5.57a7.61 7.61 0 0 0-7.392 3.863H9.546v-4.343a1.79 1.79 0 0 0-1.039-1.621L2.81 33.687v-3.403a.75.75 0 0 0-1.5 0v33.214a.75.75 0 0 0 1.5 0zm19.452-23.625c3.394 0 6.109 2.793 6.109 6.108a6.115 6.115 0 0 1-6.109 6.108c-3.396 0-6.107-2.783-6.107-6.104 0-3.326 2.714-6.112 6.107-6.112zm-7.279 3.902a8.305 8.305 0 0 0-.329 2.206c0 1.443.447 2.905 1.156 4.024H9.546v-6.23zM2.81 35.338l5.07 2.335c.101.046.166.148.166.259V55.85c0 .11-.065.212-.166.258l-5.07 2.335V35.338z" fill="#ffffff" opacity="1" data-original="#000000" class=""></path><path d="M22.262 49.614c2.004 0 3.634-1.63 3.634-3.633s-1.63-3.633-3.634-3.633c-2.003 0-3.632 1.63-3.632 3.633s1.63 3.633 3.632 3.633zm0-5.766c1.177 0 2.134.957 2.134 2.133s-.957 2.133-2.134 2.133-2.132-.957-2.132-2.133.956-2.133 2.132-2.133zM59.436 28.75c.964.437 2.114.23 2.864-.512l3.898-3.857a1.658 1.658 0 0 0-.59-2.733L17.765 3.941a3.018 3.018 0 0 0-3.913 1.875L10.299 16.45a3.004 3.004 0 0 0 1.503 3.638l-.868 2.54a3.472 3.472 0 0 0 2.104 4.382l34.6 12.65a3.475 3.475 0 0 0 4.399-1.914l.524-1.246 2.353 1.038a1.646 1.646 0 0 0 2.206-.89l1.41-3.458a1.645 1.645 0 0 0-.859-2.14l-2.375-1.059 1.1-2.62zM11.722 16.925l3.553-10.633a1.52 1.52 0 0 1 1.97-.944l47.842 17.707c.108.04.139.178.056.26l-3.898 3.856a1.07 1.07 0 0 1-1.189.213l-6.551-2.974a3.024 3.024 0 0 0-4.053 1.62l-1.861 4.6a1.532 1.532 0 0 1-1.958.851L12.62 18.827a1.517 1.517 0 0 1-.898-1.902zm45.34 15.495a.147.147 0 0 1 .08.198v.004l-1.414 3.467a.144.144 0 0 1-.2.08l-2.386-1.054 1.572-3.741zm-6.407 4.741a1.981 1.981 0 0 1-2.502 1.09l-34.6-12.65a1.978 1.978 0 0 1-1.197-2.494l.837-2.453L45.1 32.886c1.537.58 3.286-.215 3.882-1.69l1.859-4.598a1.528 1.528 0 0 1 2.046-.82l2.144.972a11664.03 11664.03 0 0 0-4.375 10.411z" fill="#ffffff" opacity="1" data-original="#000000" class=""></path></g></svg>