<svg xmlns="http://www.w3.org/2000/svg" xmlns:xlink="http://www.w3.org/1999/xlink" width="512" height="512" x="0" y="0" viewBox="0 0 512.063 512.063" style="enable-background:new 0 0 512 512" xml:space="preserve" class=""><g><path d="M159.815 247.314c18.426-.098 33.337-15.167 33.24-33.594-.048-8.926-3.568-17.299-9.913-23.577-6.302-6.236-14.64-9.663-23.499-9.663l-.183.001c-8.926.047-17.299 3.568-23.578 9.913-6.278 6.345-9.709 14.755-9.662 23.682.048 8.926 3.568 17.299 9.913 23.577 6.302 6.235 14.64 9.663 23.498 9.663l.184-.002zm-18.595-33.319a18.297 18.297 0 0 1 5.325-13.051 18.298 18.298 0 0 1 12.995-5.463l.101-.001c4.882 0 9.478 1.889 12.951 5.325a18.292 18.292 0 0 1 5.463 12.994c.026 4.919-1.865 9.555-5.325 13.052s-8.075 5.437-12.994 5.463l-.101.001a18.297 18.297 0 0 1-12.951-5.325 18.301 18.301 0 0 1-5.464-12.995z" fill="#ffffff" opacity="1" data-original="#000000"></path><path d="M511.416 334.058a7.5 7.5 0 0 0-4.975-7.021 141.791 141.791 0 0 0-12.225-3.749 79.287 79.287 0 0 0 1.345-14.96c-.229-43.134-35.392-78.065-78.475-78.065l-.423.001c-20.963.111-40.627 8.379-55.372 23.281-11.84 11.966-19.356 27.062-21.806 43.399l-12.001-20.217c-8.003-13.482-23.33-21.854-40.008-21.854h-.035l-2.05.001-.182-34.145 12.412-.066a7.5 7.5 0 0 0 7.46-7.54c-.022-4.143-3.444-7.482-7.54-7.46l-65.002.345s-.342-44.301-.353-44.363a7.526 7.526 0 0 0-.278-1.087c-.014-.042-.031-.083-.046-.125a7.459 7.459 0 0 0-1.153-2.085c-.017-.021-.028-.046-.045-.067l-55.578-69.373c-3.949-4.93-9.834-7.753-16.153-7.704a20.432 20.432 0 0 0-15.95 7.723l-.12.152v.001l-30.135 38.444a38.725 38.725 0 0 0-25.121-9.223l-.208.001c-3.808.02-7.525.582-11.107 1.677-8.188-7.825-19.028-12.212-30.504-12.212h-.24c-24.385.13-44.119 20.075-43.99 44.464.003.597.019 1.198.045 1.805.952 21.303 18.614 37.916 40.257 37.915l.225-.001 44.591-.237.15 16.995c.036 4.142 3.435 7.49 7.566 7.433a7.5 7.5 0 0 0 7.433-7.566l-.331-37.449 115.857-.615.475 89.349-115.884.615-.116-21.873a7.5 7.5 0 0 0-7.499-7.46h-.041a7.5 7.5 0 0 0-7.46 7.54l.156 29.373.152 28.583.002.04c0 .012-.002.024-.001.036l.462 29.644c-3.598-2.747-7.414-4.13-11.439-4.13h-.094c-23.904.126-33.764 49.129-36.203 63.985-20.431 2.425-36.279 19.901-36.168 40.954.037 7.039 1.848 13.796 5.17 19.749a15 15 0 0 0-4.52 3.129 14.919 14.919 0 0 0-4.342 10.641l.069 13.087c.045 8.253 6.772 14.937 15.015 14.936h.081l481.96-2.56c8.279-.045 14.98-6.817 14.936-15.096zm-14.97 5.45.568 103.527c-.039 0-.077-.006-.116-.005l-8.009.043-.158-29.768a7.505 7.505 0 0 0-2.225-5.292c-1.414-1.399-3.358-2.207-5.315-2.168l-56.89.303-.102-19.257c18.425-1.647 35.51-9.645 48.67-22.946 7.55-7.631 13.334-16.539 17.179-26.225a127.79 127.79 0 0 1 6.398 1.788zM217.905 274.86l.031 5.827-.002 7.756-31.94.17h-.046l-55.227.294h-.01l-28.617.152-.072-13.584zm-39.116 77.225-40.163.213-.108-16.716 40.182-.213zm-40.066 15.214 40.145-.213.089 16.716-40.126.212zm39.897-46.93-40.199.213-.108-16.716 40.219-.213zm-63.267 88.394c-.496-16.412-4.181-36.18-9.83-52.411a136.454 136.454 0 0 0-2.564-6.793l-.709-45.501 21.062-.112.692 106.961a29.227 29.227 0 0 0-8.651-2.144zm23.714 16.248c.014-.193.027-.386.026-.582l-.165-25.415 40.108-.212.244 45.916-37.922.202a29.53 29.53 0 0 0 .795-6.949 29.31 29.31 0 0 0-3.086-12.96zm55.214 19.627-.749-141.065 24.525-.13.749 141.065zm39.525-.21-.733-138.01 34.205-.023h.019c9.032 0 17.243 4.38 21.429 11.433l40.653 68.483a75.976 75.976 0 0 0-16.74-1.811c-35.473.189-65.953 25.301-73.002 59.897zm78.912-44.928c8.289-.018 16.35 1.59 23.946 4.855a7.46 7.46 0 0 0 3.758.56l18.415 31.021c1.687 2.842 3.714 5.44 5.992 7.796l-109.787.583c6.759-26.061 30.367-44.67 57.676-44.815zm96.573 4.907c-4.963-1.904-9.137-5.26-11.751-9.664l-7.258-12.227a78.1 78.1 0 0 0 18.916 4.311zm15.089 16.741 49.391-.263.114 21.507-49.391.262zm-70.781-112.065c-.09-16.956 6.428-32.933 18.354-44.986 11.926-12.054 27.833-18.742 44.789-18.832l.342-.001c34.846 0 63.29 28.257 63.476 63.144.09 16.957-6.428 32.933-18.355 44.986-10.34 10.451-23.673 16.859-38.087 18.44l-.227-42.667 19.248-19.454a7.5 7.5 0 0 0-.057-10.606 7.5 7.5 0 0 0-10.606.057l-8.698 8.79-.057-10.78c-.022-4.142-3.436-7.459-7.54-7.46a7.5 7.5 0 0 0-7.46 7.54l.161 30.339-8.114-8.028a7.5 7.5 0 0 0-10.549 10.663l18.776 18.578.122 22.91c-12.935-1.619-25.027-7.165-34.774-16.05l-18.963-31.944a63.77 63.77 0 0 1-1.781-14.639zm-66.148-39.208h.024c11.409 0 21.796 5.559 27.109 14.511l47.256 79.606c.09.168.189.331.292.493l22.508 37.917c5.305 8.937 14.323 15.228 24.732 17.656l.12 22.677-10.464.056h-.186c-11.413 0-21.788-5.548-27.108-14.511l-70.112-118.108c-6.876-11.583-20.027-18.775-34.328-18.775h-.028l-34.275.023-.057-10.766.003-10.741zm-17.061-14.989-11.253.008-.181-34.024 11.253-.06zm-26.434-33.936.18 33.955-11.338.008-.18-33.902zM154.668 98.334c1.442-1.84 3.34-2.124 4.344-2.129 1.017.023 2.905.259 4.367 2.083l45.878 57.266-99.857.53zM42.005 176.95c-13.468.076-24.833-10.508-25.417-23.581-.018-.41-.028-.819-.031-1.221-.085-16.115 12.956-29.295 29.07-29.381h.158c8.811 0 17.058 3.919 22.649 10.767a7.498 7.498 0 0 0 9.012 2.04 23.635 23.635 0 0 1 10.033-2.272c5.952-.045 11.607 2.142 15.98 6.049L88.024 159.04c-.019.025-.032.053-.051.078-.22.288-.418.59-.593.905-.021.038-.045.073-.066.111a7.39 7.39 0 0 0-.437.999c-.025.069-.05.138-.073.207-.111.339-.262 15.374-.262 15.374zm22.642 175.461c4.888-11.121 9.553-15.172 11.496-15.183h.008c2.647 0 9.105 6.523 15.206 24.053 4.626 13.292 7.883 29.715 8.791 43.695a33.196 33.196 0 0 0-15.314-3.74l-.178.001a33.128 33.128 0 0 0-7.294.845 40.955 40.955 0 0 0-22.478-14.877c2.146-12.919 5.63-25.392 9.763-34.794zm-20.063 48.507h.14a26.015 26.015 0 0 1 22.91 13.67 7.501 7.501 0 0 0 9.687 3.266 18.114 18.114 0 0 1 7.416-1.617 18.276 18.276 0 0 1 13.969 6.391 7.504 7.504 0 0 0 8.514 2.068 14.402 14.402 0 0 1 5.365-1.06h.079c7.955 0 14.449 6.451 14.491 14.415a14.454 14.454 0 0 1-1.742 6.954l-98.902.525a25.88 25.88 0 0 1-7.818-18.441c-.078-14.355 11.538-26.095 25.891-26.171zm452.462 70.232L15.07 473.694l-.053-13.103 7.151-.038a7.471 7.471 0 0 0 1.844.257h.04l472.942-2.763.064 13.103h-.012zM299.427 119.85h.131l41.368-.219a7.5 7.5 0 0 0-.039-15h-.04l-41.369.219h-.05c-4.938 0-8.996-3.874-9.054-8.685l-.001-.105c-.055-10.326 8.306-18.945 18.638-19.213a7.5 7.5 0 0 0 7.211-6.316c2.958-18.544 18.755-32.076 37.563-32.176h.211c18.808 0 34.655 13.408 37.725 31.955a7.5 7.5 0 0 0 8.395 6.209c.967-.129 1.748-.191 2.458-.195h.101c6.728 0 13.034 3.597 16.477 9.403a7.501 7.501 0 0 0 6.452 3.676h.04l20.564-.109h.04c4.056 0 7.367 3.289 7.388 7.35.022 4.075-3.276 7.407-7.35 7.429l-79.413.422a7.5 7.5 0 0 0-.221 14.996l3.976.138a7.549 7.549 0 0 0 1.846-.163l73.892-.392c12.345-.066 22.335-10.163 22.27-22.508-.066-12.306-10.096-22.27-22.387-22.27h-.122l-16.608.088c-5.94-7.539-14.866-12.298-24.474-12.975-6.598-22.432-27.096-38.052-51.045-38.052l-.293.001c-24.244.129-44.896 16.296-51.091 39.195-15.557 3.244-27.328 17.217-27.241 33.61l.003.216c.155 12.967 10.933 23.471 24.049 23.471z" fill="#ffffff" opacity="1" data-original="#000000"></path></g></svg>