<svg xmlns="http://www.w3.org/2000/svg" xmlns:xlink="http://www.w3.org/1999/xlink" width="512" height="512" x="0" y="0" viewBox="0 0 512 512" style="enable-background:new 0 0 512 512" xml:space="preserve" class=""><g><path d="M74.118 444.901h8.022c18.68 0 30.982 4.337 45.07 14.598 13.464 9.808 35.404 23.726 49.18 31.634 16.951 9.694 36.623 12.387 51.164 10.091l118.656-18.878c11.48-1.814 19.672-11.31 18.311-22.847-1.361-11.508-11.65-19.247-23.244-19.077l-108.82 3.94c7.937-9.014 7.001-22.847-2.013-30.84l-20.948-18.595c-20.693-18.283-55.36-26.503-83.819-26.503H74.118" style="stroke-width:20;stroke-linecap:round;stroke-linejoin:round;stroke-miterlimit:10;" fill="none" stroke="#ffffff" stroke-width="20" stroke-linecap="round" stroke-linejoin="round" stroke-miterlimit="10" data-original="#000000" opacity="1" class=""></path><path d="m169.899 418.682 31.719 27.694c9.042 7.909 22.904 7.03 30.84-2.013M10 348.752h64.118v115.85H10zM322.485 144.945h37.445l-74.379 107.544V171.25h-35.064l48.811-90.14h56.862zM382.068 293.818h-153.72c-4.394 0-7.994 3.6-7.994 7.994v32.569c0 4.394 3.6 7.994 7.994 7.994h153.72c4.394 0 7.994-3.6 7.994-7.994v-32.569c0-4.394-3.6-7.994-7.994-7.994h0z" style="stroke-width:20;stroke-linecap:round;stroke-linejoin:round;stroke-miterlimit:10;" fill="none" stroke="#ffffff" stroke-width="20" stroke-linecap="round" stroke-linejoin="round" stroke-miterlimit="10" data-original="#000000" opacity="1" class=""></path><path d="M370.673 293.818c17.461-52.638 66.67-73.047 66.585-148.079-.085-86.399-66.981-136.656-132.035-135.721-65.083-.935-131.979 49.322-132.064 135.721-.085 75.032 49.123 95.441 66.585 148.079M250.6 342.374v21.543c0 11.849 9.694 21.543 21.543 21.543h66.159c11.849 0 21.543-9.694 21.543-21.543v-21.543M134.382 153.704h-25.937M130.584 62.884l-18.34-18.34M130.584 240.924l-18.34 18.34M476.035 153.704H502M479.833 62.884l18.369-18.34M479.833 240.924l18.369 18.34" style="stroke-width:20;stroke-linecap:round;stroke-linejoin:round;stroke-miterlimit:10;" fill="none" stroke="#ffffff" stroke-width="20" stroke-linecap="round" stroke-linejoin="round" stroke-miterlimit="10" data-original="#000000" opacity="1" class=""></path></g></svg>