<svg xmlns="http://www.w3.org/2000/svg" xmlns:xlink="http://www.w3.org/1999/xlink" width="512" height="512" x="0" y="0" viewBox="0 0 496 496" style="enable-background:new 0 0 512 512" xml:space="preserve" class=""><g><path d="M496 208h-17.977l-26.793 14.098c-3.015-1.664-6.152-3.075-9.535-3.922l-33.703-8.434v-3.832C422.902 195.504 432 178.313 432 160v-13.984c0-31.078-24.352-57.086-54.281-57.993-1.52-.039-3.016.016-4.52.09l8.738-20.457-42.363-42.351-24.972 16.254a135.318 135.318 0 0 0-29.946-12.422L278.488 0H217.52l-6.168 29.145a135.164 135.164 0 0 0-29.946 12.421l-24.972-16.254-42.329 42.329 8.59 20.472c-.328-.015-.64-.074-.968-.082-15.32-.445-29.75 5.145-40.711 15.785C70.039 114.45 64 128.72 64 144v16c0 18.313 9.09 35.496 24 45.902v3.84l-21.984 5.496L26.168 192H0v165.77L78.703 384h15.328l1.914-6.703 24.125 14.48c.395 13.118 10.914 23.672 24.02 24.133.46 13.05 10.95 23.54 24 24 .46 13.05 10.95 23.54 24 24 .476 13.356 11.414 24.09 24.879 24.09 5 0 9.902-1.559 14.023-4.336l7.086 6.258A24.359 24.359 0 0 0 254.176 496h1.48c13.313 0 24.145-10.762 24.313-24.031 13.168-.168 23.832-10.832 24-24 13.176-.168 23.847-10.848 24-24.024C341.266 423.633 352 412.77 352 399.398c0-.804-.04-1.597-.121-2.398L496 324.945zm-80-61.984V160c0 14.2-7.672 27.465-20.023 34.617l-4 2.313.03 25.316 39.97 9.984L344 278.535v-21.55c0-10.755-4.344-20.602-11.457-27.88L360 222.246V196.91l-3.992-2.308C343.664 187.465 336 174.199 336 160v-16c0-10.91 4.313-21.113 12.152-28.71 7.832-7.595 18.223-11.688 29.086-11.267 21.371.641 38.762 19.48 38.762 41.993zm-155.938 126.23-36.214-11.574c-16.504-5.29-34.368-6.078-51.262-2.336L168 259.352v-2.368c0-11.03 7.48-20.609 18.176-23.289L232 222.246V196.91l-3.992-2.308C215.664 187.465 208 174.199 208 160v-16c0-10.91 4.313-21.113 12.152-28.71 7.832-7.595 18.29-11.688 29.086-11.267 21.371.641 38.762 19.48 38.762 41.993V160c0 14.2-7.672 27.465-20.023 34.617l-4 2.313.03 25.316 45.817 11.45A23.983 23.983 0 0 1 328 256.983v29.977L326.023 288h-4.902l-49.184-14.055c-3.875-1.097-7.867-1.547-11.875-1.699zm-90.269-152.512C184.816 90.625 215.055 72 248 72c32.633 0 62.742 18.375 77.879 47.09A55.638 55.638 0 0 0 320 144v16c0 18.312 9.09 35.496 24 45.902v3.84l-32 8.012-32.008-8.012v-3.832C294.902 195.504 304 178.312 304 160v-13.984c0-31.079-24.352-57.086-54.281-57.993-15.313-.449-29.75 5.145-40.711 15.786C198.039 114.449 192 128.719 192 144v16c0 18.312 9.09 35.496 24 45.902v3.84l-32 8.012-32.008-8.012v-3.832C166.902 195.504 176 178.312 176 160v-13.984c0-9.414-2.266-18.352-6.207-26.282zM133 71.352l25.559-25.559 22.496 14.64 4.304-2.64c10.786-6.61 22.442-11.45 34.641-14.367l4.922-1.18L230.488 16h35.032l5.55 26.238 4.922 1.176c12.2 2.922 23.856 7.762 34.64 14.371l4.305 2.64 22.497-14.64L362.96 71.32l-9.074 21.246c-6.176 2.657-11.903 6.395-16.887 11.227-.328.32-.61.664-.93.992C317.223 74.825 283.902 56 248 56c-36.16 0-69.574 19-88.375 49.266-5.031-5.266-11.016-9.532-17.648-12.512zm-29 150.894V196.91l-3.992-2.308C87.664 187.465 80 174.199 80 160v-16c0-10.91 4.313-21.113 12.152-28.71 7.832-7.595 18.246-11.688 29.086-11.267 21.371.641 38.762 19.48 38.762 41.993V160c0 14.2-7.672 27.465-20.023 34.617l-4 2.313.03 25.316 27.45 6.86C156.344 236.382 152 246.23 152 256.983v5.926l-24.953 5.547.648-2.266.305-14.785-42.191-24.613zM16 208h5.832l57.535 33.559-29.031 116.12L16 346.23zm65.297 160-15.746-5.246 28.203-112.8L112 260.593v2.285L81.969 368zM136 391.031a9.03 9.03 0 0 1 2.625-6.344l14.063-14.062A9.03 9.03 0 0 1 159.03 368c4.946 0 8.969 4.023 8.969 8.969a9.03 9.03 0 0 1-2.625 6.344l-14.063 14.062A9.03 9.03 0 0 1 144.97 400c-4.946 0-8.969-4.023-8.969-8.969zm24 24a9.03 9.03 0 0 1 2.625-6.344l14.063-14.062A9.03 9.03 0 0 1 183.03 392c4.946 0 8.969 4.023 8.969 8.969a9.03 9.03 0 0 1-2.625 6.344l-14.063 14.062A9.03 9.03 0 0 1 168.97 424c-4.946 0-8.969-4.023-8.969-8.969zm24 24a9.03 9.03 0 0 1 2.625-6.344l14.063-14.062A9.03 9.03 0 0 1 207.03 416c4.946 0 8.969 4.023 8.969 8.969a9.03 9.03 0 0 1-2.625 6.344l-14.063 14.062A9.03 9.03 0 0 1 192.97 448c-4.946 0-8.969-4.023-8.969-8.969zM216.969 472c-4.946 0-8.969-4.023-8.969-8.969a9.03 9.03 0 0 1 2.625-6.344l14.063-14.062A9.03 9.03 0 0 1 231.03 440c4.946 0 8.969 4.023 8.969 8.969a9.03 9.03 0 0 1-2.625 6.344l-14.063 14.062A9.03 9.03 0 0 1 216.97 472zm38.687 8h-1.48a8.29 8.29 0 0 1-5.512-2.09l-5.984-5.277 6.007-6.008c2.145-2.145 3.81-4.695 5.04-7.434l7.273 6.055a8.325 8.325 0 0 1 3 6.41c0 4.602-3.742 8.344-8.344 8.344zm71.742-72h-1.382a8.583 8.583 0 0 1-5.504-2l-43.383-36.152-10.25 12.297 42.129 35.101a8.343 8.343 0 0 1 2.992 6.41c0 4.602-3.742 8.344-8.344 8.344h-1.746a8.344 8.344 0 0 1-5.336-1.938l-43.453-36.207-10.25 12.297L285 441.258a8.283 8.283 0 0 1 3 6.398c0 4.602-3.742 8.344-8.344 8.344-3.07 0-6.062-1.09-8.418-3.047l-17.855-14.883c-3.934-8.039-12.016-13.644-21.48-13.98-.462-13.05-10.95-23.54-24-24-.462-13.05-10.95-23.54-24-24-.47-13.356-11.407-24.09-24.872-24.09-6.574 0-13.008 2.664-17.656 7.313l-14.062 14.062c-.84.84-1.536 1.793-2.243 2.738l-24.574-14.746 21.543-75.398 54.008-12.008c14.168-3.168 29.105-2.48 42.922 1.941l11.785 3.77-39.953 19.976c-9.13 4.575-14.801 13.758-14.801 23.97v1.581C176 339.977 188.023 352 202.8 352c4.856 0 9.634-1.32 13.786-3.824l29.789-17.864c5.984-3.585 14.016-2.8 19.184 1.848l67.593 60.832a8.66 8.66 0 0 1 2.848 6.406c0 4.747-3.855 8.602-8.602 8.602zM480 315.055l-134.777 67.394a22.222 22.222 0 0 0-1.375-1.336l-67.582-60.832A32.117 32.117 0 0 0 254.71 312a32.222 32.222 0 0 0-16.574 4.594l-29.801 17.87A10.708 10.708 0 0 1 202.8 336C196.84 336 192 331.16 192 325.2v-1.583c0-4.12 2.29-7.816 5.969-9.656l44.625-22.313c7.636-3.824 16.703-4.68 24.933-2.312l50.274 14.36 12.176.304L480 225.04zm0 0" fill="#ffffff" opacity="1" data-original="#000000" class=""></path></g></svg>